<svg id="Layer_1" data-name="Layer 1" xmlns="http://www.w3.org/2000/svg" viewBox="0 0 1280 1024"><defs><style>.cls-1{fill:#2e3d27;}.cls-2{fill:#af2640;}.cls-3{fill:#c47d2c;}.cls-4{fill:#edda35;}.cls-5{fill:#abc550;}.cls-6{fill:#7dace3;}.cls-7{fill:#65559c;}.cls-8{fill:#36492e;}.cls-9{fill:#415836;}.cls-10{fill:#47673f;}.cls-11{fill:#4b7246;}.cls-12{fill:#507d4c;}.cls-13{fill:#588850;}.cls-14{fill:#5f9253;}.cls-15{fill:#6d6d6d;}.cls-16{fill:#5c9354;}</style></defs><title>Qatsyir Horizon Logo</title><path class="cls-1" d="M347.09,715.79q9.32,8.7,17.3,16.77,14.39,14.49,20.09,18.73,8.07,6,14,8.23a30.64,30.64,0,0,0,10.77,2.23,21.28,21.28,0,0,0,7.45-1.24,18.17,18.17,0,0,0,6-3.73c1-1,2.38-3.07,4-6.31q2.68-5.28,6.83-5.28a4.91,4.91,0,0,1,3.63,1.6,5.28,5.28,0,0,1,1.55,3.78q0,5.59-8.39,10.76a49.72,49.72,0,0,1-26.72,7.25q-10,0-16.37-2.07a63.69,63.69,0,0,1-16.52-8.38q-7.82-5.48-20.87-19Q338,726.89,334.29,723.63a50.39,50.39,0,0,0-7.3-5.43,71.57,71.57,0,0,0-9.43-4.13q-14.51-5.8-22.06-17.38t-7.56-27.93q0-28.14,19.37-53.38t50-25.24q14.59,0,25.06,5.84a41.53,41.53,0,0,1,16.53,17.22A53.7,53.7,0,0,1,405,638.85q0,25.33-16.42,48.92T347.09,715.79Zm4.66-118.2a37.73,37.73,0,0,0-22.12,7.09q-10.11,7.1-16.53,22.15t-6.43,34.93q0,22.79,10.05,35.14t25.08,12.37q11.2,0,21.2-7.35t16.48-23.13Q386,663,386,642.51q0-21.21-9.89-33.07T351.75,597.59Z"/><path class="cls-1" d="M475.65,625.23l6.83-1.45L474.71,650q-4.65,15.63-8.79,36-2.28,11.09-2.28,14.29c0,2.14.86,3.21,2.59,3.21q1.65,0,5.28-2.18a67.63,67.63,0,0,0,12.31-9.52l3.31,4q-11.79,10.75-15.11,13a56.8,56.8,0,0,1-12.62,6.73,22.26,22.26,0,0,1-7.66,1.44,5.76,5.76,0,0,1-4-1.24,4.67,4.67,0,0,1-1.35-3.62,15.47,15.47,0,0,1,.83-4.24l4.14-14.08a87.58,87.58,0,0,1-21.22,18.32q-7.55,4.76-13.86,4.76-6,0-9.22-4.24-4.33-5.7-4.34-14.91,0-11,5.84-24.42a90.22,90.22,0,0,1,15.69-24.43q9.82-11,20.7-16.15,8.37-3.93,21.52-3.93a57.18,57.18,0,0,1,6.73.41Zm-12.84,15.83a48.52,48.52,0,0,0-9.42-1.14,26.57,26.57,0,0,0-16.25,5.13q-6.93,5.12-12.88,18.42A64.53,64.53,0,0,0,418.31,690q0,7,2.38,10.14a7.45,7.45,0,0,0,6.21,3.11q7.14,0,15.31-7.71t12-22.2Z"/><path class="cls-1" d="M516.69,611.05l16.43-6.31-7.43,29h21.43l-1.66,7.35H524l-9,34.69q-4.31,15.62-4.3,21.72a5.67,5.67,0,0,0,1.19,4,4.29,4.29,0,0,0,3.26,1.24q3.21,0,9.83-3.83a128.11,128.11,0,0,0,16.56-11.49l3.93,4.76q-22.66,17.09-30.32,20.91t-12.32,3.83a7.32,7.32,0,0,1-6.05-2.79c-1.49-1.87-2.23-4.9-2.23-9.11q0-7.46,3.93-22.77L509,641.06H492.24l1.87-7.35h16.78Z"/><path class="cls-1" d="M595.64,627q9.21,0,14.23,3.57t5,8.23a6.55,6.55,0,0,1-2.12,4.86,7.06,7.06,0,0,1-5.12,2.07,6.45,6.45,0,0,1-3.42-.88,19.28,19.28,0,0,1-4.14-4.4q-5.07-6.72-10-6.73a10.31,10.31,0,0,0-7.5,3.26,11,11,0,0,0-3.26,8.12,17.57,17.57,0,0,0,2.07,8.21q2.07,4,10.45,12.87,11.49,12.21,11.49,23.16T594,708.51q-9.32,8.22-24,8.21-12.32,0-18.32-5a15.5,15.5,0,0,1-6-12.36,8.34,8.34,0,0,1,2.28-6,7.46,7.46,0,0,1,5.59-2.38,7.07,7.07,0,0,1,5,1.92,5.92,5.92,0,0,1,2.07,4.5c0,.69,0,1.59-.14,2.69,0,.9-.07,1.66-.07,2.28a7.24,7.24,0,0,0,2.89,5.79,11.34,11.34,0,0,0,7.63,2.38,23.51,23.51,0,0,0,9.8-1.91,15.44,15.44,0,0,0,9-13.49,14.33,14.33,0,0,0-2.23-7.44q-2.22-3.72-10-12.3-10.77-12-10.77-23.06,0-10.12,8.18-17.73T595.64,627Z"/><path class="cls-1" d="M608.15,648.1l-3.31-4.86,7.66-5.18q11.18-7.65,15.73-9.83A11.05,11.05,0,0,1,633,627q2.18,0,4.14,2.48,9.11,11.47,15.32,31a124.2,124.2,0,0,1,6.21,37.8c0,1.58-.07,4-.21,7.24q17.49-32.21,17.49-51.16a42.56,42.56,0,0,0-1.75-10.46,47.9,47.9,0,0,1-1.87-10.36,6.83,6.83,0,0,1,1.92-5,6.43,6.43,0,0,1,4.81-2,7.12,7.12,0,0,1,5.85,2.8q2.22,2.79,2.22,8,0,13.35-6.1,33.27t-19.2,42.85q-13.1,22.93-23.91,34.06T617,763.46q-10.1,4.8-19.1,4.81-6.82,0-10.3-2.54t-3.46-6.05a6.72,6.72,0,0,1,2.69-5.33,11,11,0,0,1,7.24-2.23,47.47,47.47,0,0,1,9.63,1.35,50.83,50.83,0,0,0,8.9,1.45q6.31,0,13.35-5.28a55.42,55.42,0,0,0,15.27-17.27,40.93,40.93,0,0,0,5.64-20.26q0-14.39-4.19-34.54t-11.85-30.82q-3.84-5.47-8.18-5.48Q617.57,641.27,608.15,648.1Z"/><path class="cls-1" d="M691.24,651l-4.55-3.52q10.34-11.38,18.86-16.2t14.53-4.81a7.73,7.73,0,0,1,5.06,1.45,4.81,4.81,0,0,1,1.76,3.93q0,3-6.71,25.46-10.94,36.75-10.94,44.3A3.92,3.92,0,0,0,710,704a2,2,0,0,0,1.55,1q3.32,0,17-12.84l4,3.94q-14.17,13.35-20.7,17.08t-10.66,3.72a7.48,7.48,0,0,1-5.75-2.28,8.9,8.9,0,0,1-2.12-6.31q0-12.93,15.53-63.24a14.87,14.87,0,0,0,.72-4.24q0-2.07-1.86-2.07a9.17,9.17,0,0,0-4.71,1.65Q700.35,642.1,691.24,651Zm40.68-68.52a7.07,7.07,0,0,1,5.28,2.12,7.48,7.48,0,0,1,2.07,5.44,11.58,11.58,0,0,1-3.16,8,9.43,9.43,0,0,1-7.09,3.47,6.84,6.84,0,0,1-5.17-2.18,7.86,7.86,0,0,1-2.07-5.69,11.28,11.28,0,0,1,3-7.92A9.4,9.4,0,0,1,731.92,582.48Z"/><path class="cls-1" d="M753.66,714H738.24l7.24-27.84q5.28-20.49,9.21-38.92a41,41,0,0,0,.93-5.69c0-1.66-.75-2.48-2.27-2.48-1,0-2.63.7-4.76,2.12s-6,4.91-11.59,10.5l-3.21-3.62q9.93-10.65,19.81-16t15.16-5.33a4.55,4.55,0,0,1,3,.88,2.75,2.75,0,0,1,1.08,2.22,47,47,0,0,1-1.36,7.18l-4.5,18.62a132.82,132.82,0,0,1,23.64-28.26q6.33-5.61,10.58-5.61a7.12,7.12,0,0,1,5.19,2,6.52,6.52,0,0,1,.06,9.47q-2,2-10.09,4.66a44.39,44.39,0,0,0-12.46,6.21,73.68,73.68,0,0,0-18.57,24.07Q763,673.77,758.33,694Z"/><path class="cls-1" d="M530.75,879l-1.35,5.9a73.11,73.11,0,0,1-8.07.62q-4.46,0-11.8-.72-7.87-.72-13.46-.72a31.77,31.77,0,0,0-9.21,1.44q4.2-11.91,9.71-33.09l7.95-31.08-28,1q-7.36.42-15.14,1.14-7,27.63-14.47,40.88t-17,19.51q-9.57,6.25-18.37,6.26a25.57,25.57,0,0,1-14.7-4.14q-4.45-2.9-4.46-7.24a6.09,6.09,0,0,1,1.76-4.4,5.71,5.71,0,0,1,4.25-1.81q4,0,8.28,5.69a18.4,18.4,0,0,0,4.19,4.4,6.66,6.66,0,0,0,3.57,1q8.07,0,15.16-13t20.75-64.48l10.15-37.88q-20.7,0-31.1,6.83T419,790.46c0,1.93.94,4.38,2.8,7.35q2.48,4.14,2.48,6.73a6.65,6.65,0,0,1-1.91,4.91,6.53,6.53,0,0,1-4.82,1.92,7.6,7.6,0,0,1-6.21-3.47q-2.58-3.46-2.58-10.09a30,30,0,0,1,8.69-21.22q8.7-9.21,25.26-13,9.51-2.17,38-2.17-7.65,15.11-17.14,53.4,27.39,0,43.18-2,8.94-30,15.78-41.87t15.37-17.13a35.55,35.55,0,0,1,19.09-5.28q9.11,0,14,3.47t4.91,7.92a5.57,5.57,0,0,1-1.75,4.24,6.39,6.39,0,0,1-4.55,1.66q-3.62,0-8.16-5.18t-8.27-5.17q-7.74,0-15.29,14.38-13.44,25.68-31.12,108.37,1.75.21,4.95.72a57.27,57.27,0,0,0,9.48,1A51.25,51.25,0,0,0,530.75,879Z"/><path class="cls-1" d="M586.6,796.57a21.06,21.06,0,0,1,16.87,8.07q6.74,8.07,6.73,22.46,0,23-16.15,41.25T559.9,886.61q-11.08,0-17.86-7.24t-6.78-19.77a70.39,70.39,0,0,1,12.42-40.16Q563.31,796.57,586.6,796.57Zm-8.8,7.76q-8.79,0-17,12.57t-8.23,34.73q0,13.46,5.07,21.22,3.72,5.68,9.94,5.69,8.69,0,15.83-10.76,9.11-14,9.11-34.68,0-15.52-4.19-22.15T577.8,804.33Z"/><path class="cls-1" d="M634.94,883.61H619.52l7.24-27.84Q632,835.28,636,816.85a41,41,0,0,0,.93-5.69c0-1.66-.76-2.48-2.28-2.48-1,0-2.62.7-4.76,2.12s-6,4.91-11.59,10.5l-3.21-3.62q9.93-10.66,19.81-16T650,796.36a4.55,4.55,0,0,1,3,.88,2.75,2.75,0,0,1,1.08,2.22,47,47,0,0,1-1.36,7.18l-4.5,18.62A132.56,132.56,0,0,1,671.86,797q6.32-5.61,10.57-5.61a7.12,7.12,0,0,1,5.19,2,6.52,6.52,0,0,1,.06,9.47q-2,2-10.09,4.66a44,44,0,0,0-12.46,6.21,59.1,59.1,0,0,0-10.55,11.08,60,60,0,0,0-8,13q-2.28,5.53-6.95,25.72Z"/><path class="cls-1" d="M684.78,820.58l-4.56-3.52q10.34-11.38,18.87-16.2t14.52-4.81a7.76,7.76,0,0,1,5.07,1.45,4.82,4.82,0,0,1,1.76,3.93q0,3-6.71,25.46-11,36.75-10.94,44.3a4,4,0,0,0,.72,2.43,2,2,0,0,0,1.55,1q3.32,0,17-12.84l4,3.94q-14.18,13.35-20.7,17.07t-10.66,3.73a7.46,7.46,0,0,1-5.74-2.28,8.86,8.86,0,0,1-2.12-6.31q0-12.95,15.52-63.24a14.91,14.91,0,0,0,.73-4.24c0-1.38-.63-2.07-1.87-2.07a9.17,9.17,0,0,0-4.71,1.65Q693.88,811.69,684.78,820.58Zm40.67-68.52a7.07,7.07,0,0,1,5.28,2.12,7.48,7.48,0,0,1,2.07,5.44,11.54,11.54,0,0,1-3.16,8,9.4,9.4,0,0,1-7.09,3.46,6.83,6.83,0,0,1-5.17-2.17,7.92,7.92,0,0,1-2.07-5.69,11.26,11.26,0,0,1,3-7.92A9.4,9.4,0,0,1,725.45,752.06Z"/><path class="cls-1" d="M792.4,807.33a65.48,65.48,0,0,1-17.29,2.59c-2.9,0-6.1-.17-9.62-.52q-7.35-.82-9.84-.83a7.05,7.05,0,0,0-4.76,1.45,4.74,4.74,0,0,0-1.65,3.73q0,3.51,3.72,3.83c3.11.34,4.66,1.76,4.66,4.24a4.27,4.27,0,0,1-1.45,3.16,4.64,4.64,0,0,1-3.31,1.4c-2.48,0-4.78-1.23-6.88-3.68a13.53,13.53,0,0,1-3.16-9.16q0-7,5.9-12.11a21.6,21.6,0,0,1,14.59-5.07,82.07,82.07,0,0,1,12.32,1.24q12.52,2,18,2a16.81,16.81,0,0,0,10.45-3.73,7,7,0,0,1,3.73-1.65,3.13,3.13,0,0,1,2.12.77,2.12,2.12,0,0,1,.88,1.51,3.56,3.56,0,0,1-1.14,2.28q-3.51,4.34-16,16.33l-32.09,30.71q-14.07,13.46-23.39,21.72a89.12,89.12,0,0,1,9.21-.67,42.6,42.6,0,0,1,8.49.78,125.18,125.18,0,0,1,12.32,3.57q11.07,3.84,18,3.83,4.35,0,6.67-2a6.45,6.45,0,0,0,2.33-5.12,12.12,12.12,0,0,0-1.65-5,12.49,12.49,0,0,1-1.45-4.76,6,6,0,0,1,1.65-4.24,5.44,5.44,0,0,1,4.14-1.76,6.25,6.25,0,0,1,5,2.44,9.49,9.49,0,0,1,2,6.28q0,5.8-4.24,12.2A29.39,29.39,0,0,1,790,882.88q-6.42,3.42-15.84,3.42-7.75,0-22.67-4.47-12.42-3.63-18.21-3.64c-2.35,0-5.07,1.23-8.18,3.69-1.79,1.57-3.35,2.35-4.66,2.35-2.55,0-3.83-.62-3.83-1.88s.73-2.62,2.18-4.3q5.79-6.82,29.39-28.22,15.94-14.49,27.95-26.37Z"/><path class="cls-1" d="M862,796.57a21.08,21.08,0,0,1,16.87,8.07q6.72,8.07,6.73,22.46,0,23-16.15,41.25t-34.16,18.26q-11.07,0-17.85-7.24T810.7,859.6a70.39,70.39,0,0,1,12.42-40.16Q838.75,796.57,862,796.57Zm-8.8,7.76q-8.79,0-17,12.57T828,851.63q0,13.46,5.07,21.22,3.72,5.68,9.93,5.69,8.7,0,15.84-10.76,9.1-14,9.11-34.68,0-15.52-4.19-22.15T853.24,804.33Z"/><path class="cls-1" d="M891.16,820.89l-3.52-3.62q13.26-12.69,21.13-16.85t13.47-4.16a5.55,5.55,0,0,1,3.41.93,2.68,2.68,0,0,1,1.25,2.17,19.06,19.06,0,0,1-.52,3.31l-4.67,20.83a128,128,0,0,1,26.46-21.86q8.46-5.28,14-5.28a8,8,0,0,1,6.3,2.59c1.51,1.72,2.27,4.21,2.27,7.45a32.57,32.57,0,0,1-.93,7.24q-1.65,6.74-8.66,29.3-6.6,21.1-6.6,28a6.52,6.52,0,0,0,.62,3.19,1.94,1.94,0,0,0,1.76,1.06q3,0,9.42-5.8,4.55-4.14,9.11-7.66L978,865.5a94.39,94.39,0,0,1-19.77,16.89q-6.53,4.13-10.77,4.12a7.22,7.22,0,0,1-6.1-2.85q-2.18-2.83-2.18-9.26,0-9.21,11.49-45.85,3.52-13,3.52-15.22c0-2.13-1.28-3.21-3.83-3.21q-4.14,0-10.66,4.36a64.38,64.38,0,0,0-16.25,15.13q-4.14,5.6-6.94,17.83l-8.38,36.17H892.71q4.35-15.54,7.55-29.74l9.22-39.39a18.81,18.81,0,0,0,.51-3.42c0-1.86-.69-2.8-2.07-2.8q-1.65,0-4.76,2.19A64.94,64.94,0,0,0,891.16,820.89Z"/><path class="cls-2" d="M638,116C514.72,116,414.8,216,414.8,339.22S514.72,562.39,638,562.39s223.17-99.92,223.17-223.17S761.23,116,638,116Zm0,421.56c-109.56,0-198.38-88.82-198.38-198.38S528.42,140.84,638,140.84s198.37,88.82,198.37,198.38S747.54,537.6,638,537.6Z"/><path class="cls-3" d="M638,140.84c-109.56,0-198.38,88.82-198.38,198.38S528.42,537.6,638,537.6s198.37-88.82,198.37-198.38S747.54,140.84,638,140.84Zm0,372A173.58,173.58,0,1,1,811.56,339.22,173.58,173.58,0,0,1,638,512.8Z"/><path class="cls-4" d="M638,165.64A173.58,173.58,0,1,0,811.56,339.22,173.57,173.57,0,0,0,638,165.64ZM638,488A148.78,148.78,0,1,1,786.76,339.22,148.79,148.79,0,0,1,638,488Z"/><path class="cls-5" d="M638,190.44A148.78,148.78,0,1,0,786.76,339.22,148.79,148.79,0,0,0,638,190.44Zm0,272.76a124,124,0,1,1,124-124A124,124,0,0,1,638,463.2Z"/><path class="cls-6" d="M638,215.23a124,124,0,1,0,124,124A124,124,0,0,0,638,215.23Zm0,223.18a99.19,99.19,0,1,1,99.19-99.19A99.19,99.19,0,0,1,638,438.41Z"/><path class="cls-7" d="M638,240a99.19,99.19,0,1,0,99.19,99.19A99.19,99.19,0,0,0,638,240Zm0,173.58a74.39,74.39,0,1,1,74.39-74.39A74.39,74.39,0,0,1,638,413.61Z"/><path class="cls-1" d="M638.1,376.79a225.79,225.79,0,0,1,14.78,21.74,198.67,198.67,0,0,1,207.47-78.91,224.67,224.67,0,0,0-3.85-26.15,223.48,223.48,0,0,0-218.4,83.32Z"/><path class="cls-8" d="M652.88,398.53a224.26,224.26,0,0,1,13,25.4A173.84,173.84,0,0,1,861.11,345.4q.09-3.07.09-6.18,0-9.92-.85-19.6a198.67,198.67,0,0,0-207.47,78.91Z"/><path class="cls-9" d="M815.05,364a148.7,148.7,0,0,1,44,6.6,222.94,222.94,0,0,0,2.11-25.22,173.84,173.84,0,0,0-195.19,78.53,222.76,222.76,0,0,1,11.29,32.78A148.82,148.82,0,0,1,815.05,364Z"/><path class="cls-10" d="M679.62,558.52q9.4-1.77,18.53-4.32a124.07,124.07,0,0,1,156-159.1A221.71,221.71,0,0,0,859,370.62a149,149,0,0,0-181.79,86.09,225.14,225.14,0,0,1,2.41,101.81Z"/><path class="cls-11" d="M715.86,512.8a99.25,99.25,0,0,1,130.75-94.06,221.93,221.93,0,0,0,7.53-23.64,124.07,124.07,0,0,0-156,159.1,222.89,222.89,0,0,0,23.48-8A99.07,99.07,0,0,1,715.86,512.8Z"/><path class="cls-12" d="M715.86,512.8a99.07,99.07,0,0,0,5.77,33.4,221.63,221.63,0,0,0,22.58-10.64,74.46,74.46,0,0,1,92.21-94,222.84,222.84,0,0,0,10.19-22.78A99.25,99.25,0,0,0,715.86,512.8Z"/><path class="cls-13" d="M765.46,512.8a49.59,49.59,0,0,1,57.71-48.93,223.4,223.4,0,0,0,13.25-22.35,74.44,74.44,0,0,0-92.21,94,223.88,223.88,0,0,0,22.08-13.69A49.28,49.28,0,0,1,765.46,512.8Z"/><path class="cls-14" d="M765.46,512.8a49.28,49.28,0,0,0,.83,9.07,223.68,223.68,0,0,0,30.19-25.5,23.76,23.76,0,0,1,1.79-1.83,223.36,223.36,0,0,0,24.9-30.67,49.59,49.59,0,0,0-57.71,48.93Z"/><path class="cls-15" d="M796.48,496.37c.6-.6,1.2-1.21,1.79-1.83A23.76,23.76,0,0,0,796.48,496.37Z"/><path class="cls-1" d="M677.21,456.71a221.86,221.86,0,0,0-24.33-58.18,225.79,225.79,0,0,0-14.78-21.74A223.48,223.48,0,0,0,419.54,293.5a222.85,222.85,0,0,0-3.84,26.15A198.54,198.54,0,0,1,653.4,561.87q10.32-.71,20.36-2.33,3-.46,5.86-1a225.14,225.14,0,0,0-2.41-101.81Z"/><path class="cls-8" d="M651.13,455.56a197.44,197.44,0,0,0-13-32.52A198.7,198.7,0,0,0,415.7,319.65q-.84,9.68-.85,19.57,0,3.12.09,6.22A173.71,173.71,0,0,1,627.6,562.15q5.19.24,10.42.24c3.54,0,7.07-.08,10.57-.25,1.61-.07,3.21-.16,4.81-.27a199.6,199.6,0,0,0-2.27-106.31Z"/><path class="cls-9" d="M625.06,455.56A173.82,173.82,0,0,0,414.94,345.44a222.94,222.94,0,0,0,2.11,25.22A148.89,148.89,0,0,1,602.42,559.57q10.05,1.6,20.38,2.31c1.59.11,3.2.2,4.8.27a174.5,174.5,0,0,0-2.54-106.59Z"/><path class="cls-10" d="M599,456.71a149,149,0,0,0-181.94-86,220.06,220.06,0,0,0,4.87,24.49A124.05,124.05,0,0,1,578,554.23q9.12,2.55,18.54,4.32,2.91.54,5.85,1A149.47,149.47,0,0,0,599,456.71Z"/><path class="cls-11" d="M461.14,388.81a123.73,123.73,0,0,0-39.22,6.34,221.76,221.76,0,0,0,7.53,23.63A99.24,99.24,0,0,1,554.54,546.25a220.7,220.7,0,0,0,23.49,8A124.05,124.05,0,0,0,461.14,388.81Z"/><path class="cls-12" d="M461.14,438.41A74.44,74.44,0,0,1,532,535.63a223.64,223.64,0,0,0,22.58,10.62A99.26,99.26,0,0,0,429.45,418.78a219.8,219.8,0,0,0,10.2,22.78A74.37,74.37,0,0,1,461.14,438.41Z"/><path class="cls-13" d="M461.14,438.41a74.37,74.37,0,0,0-21.49,3.15,223,223,0,0,0,13.24,22.33,49.65,49.65,0,0,1,57,58.07A223.55,223.55,0,0,0,532,535.63a74.44,74.44,0,0,0-70.82-97.22Z"/><path class="cls-16" d="M461.14,463.2a49.83,49.83,0,0,0-8.25.69A223.88,223.88,0,0,0,477,493.72c1.16,1.21,2.34,2.42,3.54,3.6A223.38,223.38,0,0,0,509.89,522a50.26,50.26,0,0,0,.84-9.16A49.6,49.6,0,0,0,461.14,463.2Z"/></svg>